<mxfile host="app.diagrams.net" modified="2023-05-12T03:52:14.239Z" agent="Mozilla/5.0 (Macintosh; Intel Mac OS X 10_15_7) AppleWebKit/537.36 (KHTML, like Gecko) Chrome/112.0.0.0 Safari/537.36" etag="rBrB2ZTGb5jfpTdEUyDN" version="21.2.9" type="github">
  <diagram name="Page-1" id="74e2e168-ea6b-b213-b513-2b3c1d86103e">
    <mxGraphModel dx="954" dy="615" grid="1" gridSize="10" guides="1" tooltips="1" connect="1" arrows="1" fold="1" page="1" pageScale="1" pageWidth="1100" pageHeight="850" background="none" math="0" shadow="0">
      <root>
        <mxCell id="0" />
        <mxCell id="1" parent="0" />
        <mxCell id="77e6c97f196da883-1" value="平台业务逻辑" style="swimlane;html=1;childLayout=stackLayout;startSize=20;rounded=0;shadow=0;labelBackgroundColor=none;strokeWidth=1;fontFamily=Verdana;fontSize=8;align=center;swimlaneLine=0;" parent="1" vertex="1">
          <mxGeometry x="70" y="60" width="800" height="550" as="geometry" />
        </mxCell>
        <mxCell id="77e6c97f196da883-27" style="edgeStyle=orthogonalEdgeStyle;rounded=1;html=1;labelBackgroundColor=none;startArrow=classic;startFill=1;startSize=5;endArrow=none;endFill=0;endSize=5;jettySize=auto;orthogonalLoop=1;strokeWidth=1;fontFamily=Verdana;fontSize=8" parent="77e6c97f196da883-1" source="77e6c97f196da883-11" target="77e6c97f196da883-9" edge="1">
          <mxGeometry relative="1" as="geometry">
            <Array as="points">
              <mxPoint x="240" y="155" />
              <mxPoint x="70" y="155" />
            </Array>
          </mxGeometry>
        </mxCell>
        <mxCell id="77e6c97f196da883-2" value="买家" style="swimlane;html=1;startSize=20;" parent="77e6c97f196da883-1" vertex="1">
          <mxGeometry y="20" width="160" height="530" as="geometry" />
        </mxCell>
        <mxCell id="77e6c97f196da883-8" value="登陆" style="rounded=1;whiteSpace=wrap;html=1;shadow=0;labelBackgroundColor=none;strokeWidth=1;fontFamily=Verdana;fontSize=8;align=center;" parent="77e6c97f196da883-2" vertex="1">
          <mxGeometry x="30" y="50" width="100" height="35" as="geometry" />
        </mxCell>
        <mxCell id="77e6c97f196da883-9" value="浏览点击转发" style="rounded=1;whiteSpace=wrap;html=1;shadow=0;labelBackgroundColor=none;strokeWidth=1;fontFamily=Verdana;fontSize=8;align=center;" parent="77e6c97f196da883-2" vertex="1">
          <mxGeometry x="30" y="130" width="100" height="35" as="geometry" />
        </mxCell>
        <mxCell id="77e6c97f196da883-10" value="下单签收" style="rounded=1;whiteSpace=wrap;html=1;shadow=0;labelBackgroundColor=none;strokeWidth=1;fontFamily=Verdana;fontSize=8;align=center;" parent="77e6c97f196da883-2" vertex="1">
          <mxGeometry x="30" y="270" width="100" height="35" as="geometry" />
        </mxCell>
        <mxCell id="1ePoEiCkPnLBWXR5TJO2-47" value="签收" style="rounded=1;whiteSpace=wrap;html=1;shadow=0;labelBackgroundColor=none;strokeWidth=1;fontFamily=Verdana;fontSize=8;align=center;" vertex="1" parent="77e6c97f196da883-2">
          <mxGeometry x="30" y="337.5" width="100" height="35" as="geometry" />
        </mxCell>
        <mxCell id="1ePoEiCkPnLBWXR5TJO2-48" value="评论" style="rounded=1;whiteSpace=wrap;html=1;shadow=0;labelBackgroundColor=none;strokeWidth=1;fontFamily=Verdana;fontSize=8;align=center;" vertex="1" parent="77e6c97f196da883-2">
          <mxGeometry x="30" y="200" width="100" height="35" as="geometry" />
        </mxCell>
        <mxCell id="77e6c97f196da883-3" value="电商WEB平台" style="swimlane;html=1;startSize=20;" parent="77e6c97f196da883-1" vertex="1">
          <mxGeometry x="160" y="20" width="160" height="530" as="geometry">
            <mxRectangle x="160" y="20" width="40" height="710" as="alternateBounds" />
          </mxGeometry>
        </mxCell>
        <mxCell id="1ePoEiCkPnLBWXR5TJO2-44" style="edgeStyle=orthogonalEdgeStyle;rounded=0;orthogonalLoop=1;jettySize=auto;html=1;exitX=0.5;exitY=1;exitDx=0;exitDy=0;startArrow=classic;startFill=1;entryX=0.5;entryY=0;entryDx=0;entryDy=0;" edge="1" parent="77e6c97f196da883-3" source="77e6c97f196da883-11" target="1ePoEiCkPnLBWXR5TJO2-43">
          <mxGeometry relative="1" as="geometry">
            <mxPoint x="80" y="163" as="sourcePoint" />
            <mxPoint x="80" y="258" as="targetPoint" />
          </mxGeometry>
        </mxCell>
        <mxCell id="77e6c97f196da883-11" value="商品信息" style="rounded=1;whiteSpace=wrap;html=1;shadow=0;labelBackgroundColor=none;strokeWidth=1;fontFamily=Verdana;fontSize=8;align=center;" parent="77e6c97f196da883-3" vertex="1">
          <mxGeometry x="30" y="130" width="100" height="35" as="geometry" />
        </mxCell>
        <mxCell id="1ePoEiCkPnLBWXR5TJO2-43" value="订单信息" style="rounded=1;whiteSpace=wrap;html=1;shadow=0;labelBackgroundColor=none;strokeWidth=1;fontFamily=Verdana;fontSize=8;align=center;" vertex="1" parent="77e6c97f196da883-3">
          <mxGeometry x="30" y="290" width="100" height="35" as="geometry" />
        </mxCell>
        <mxCell id="1ePoEiCkPnLBWXR5TJO2-76" value="日志信息" style="rounded=1;whiteSpace=wrap;html=1;shadow=0;labelBackgroundColor=none;strokeWidth=1;fontFamily=Verdana;fontSize=8;align=center;" vertex="1" parent="77e6c97f196da883-3">
          <mxGeometry x="30" y="420" width="100" height="35" as="geometry" />
        </mxCell>
        <mxCell id="77e6c97f196da883-4" value="电商运营人员" style="swimlane;html=1;startSize=20;" parent="77e6c97f196da883-1" vertex="1">
          <mxGeometry x="320" y="20" width="160" height="530" as="geometry" />
        </mxCell>
        <mxCell id="1ePoEiCkPnLBWXR5TJO2-49" value="审核发布" style="rounded=1;whiteSpace=wrap;html=1;shadow=0;labelBackgroundColor=none;strokeWidth=1;fontFamily=Verdana;fontSize=8;align=center;" vertex="1" parent="77e6c97f196da883-4">
          <mxGeometry x="30" y="90" width="100" height="35" as="geometry" />
        </mxCell>
        <mxCell id="1ePoEiCkPnLBWXR5TJO2-105" style="edgeStyle=orthogonalEdgeStyle;rounded=0;orthogonalLoop=1;jettySize=auto;html=1;endArrow=none;endFill=0;" edge="1" parent="77e6c97f196da883-4" source="1ePoEiCkPnLBWXR5TJO2-85">
          <mxGeometry relative="1" as="geometry">
            <mxPoint x="150" y="130" as="targetPoint" />
          </mxGeometry>
        </mxCell>
        <mxCell id="1ePoEiCkPnLBWXR5TJO2-85" value="审核修改" style="rounded=1;whiteSpace=wrap;html=1;shadow=0;labelBackgroundColor=none;strokeWidth=1;fontFamily=Verdana;fontSize=8;align=center;" vertex="1" parent="77e6c97f196da883-4">
          <mxGeometry x="30" y="370" width="100" height="35" as="geometry" />
        </mxCell>
        <mxCell id="77e6c97f196da883-5" value="管理后台" style="swimlane;html=1;startSize=20;" parent="77e6c97f196da883-1" vertex="1">
          <mxGeometry x="480" y="20" width="160" height="530" as="geometry" />
        </mxCell>
        <mxCell id="1ePoEiCkPnLBWXR5TJO2-50" value="店铺信息" style="rounded=1;whiteSpace=wrap;html=1;shadow=0;labelBackgroundColor=none;strokeWidth=1;fontFamily=Verdana;fontSize=8;align=center;" vertex="1" parent="77e6c97f196da883-5">
          <mxGeometry x="30" y="60" width="100" height="35" as="geometry" />
        </mxCell>
        <mxCell id="1ePoEiCkPnLBWXR5TJO2-61" value="活动内容配置" style="rounded=1;whiteSpace=wrap;html=1;shadow=0;labelBackgroundColor=none;strokeWidth=1;fontFamily=Verdana;fontSize=8;align=center;" vertex="1" parent="77e6c97f196da883-5">
          <mxGeometry x="30" y="120" width="100" height="35" as="geometry" />
        </mxCell>
        <mxCell id="1ePoEiCkPnLBWXR5TJO2-62" value="商品信息" style="rounded=1;whiteSpace=wrap;html=1;shadow=0;labelBackgroundColor=none;strokeWidth=1;fontFamily=Verdana;fontSize=8;align=center;" vertex="1" parent="77e6c97f196da883-5">
          <mxGeometry x="30" y="180" width="100" height="35" as="geometry" />
        </mxCell>
        <mxCell id="1ePoEiCkPnLBWXR5TJO2-63" value="订单管理" style="rounded=1;whiteSpace=wrap;html=1;shadow=0;labelBackgroundColor=none;strokeWidth=1;fontFamily=Verdana;fontSize=8;align=center;" vertex="1" parent="77e6c97f196da883-5">
          <mxGeometry x="30" y="290" width="100" height="35" as="geometry" />
        </mxCell>
        <mxCell id="77e6c97f196da883-6" value="卖家" style="swimlane;html=1;startSize=20;glass=0;" parent="77e6c97f196da883-1" vertex="1">
          <mxGeometry x="640" y="20" width="160" height="530" as="geometry" />
        </mxCell>
        <mxCell id="1ePoEiCkPnLBWXR5TJO2-64" value="登陆" style="rounded=1;whiteSpace=wrap;html=1;shadow=0;labelBackgroundColor=none;strokeWidth=1;fontFamily=Verdana;fontSize=8;align=center;" vertex="1" parent="77e6c97f196da883-6">
          <mxGeometry x="30" y="60" width="100" height="35" as="geometry" />
        </mxCell>
        <mxCell id="1ePoEiCkPnLBWXR5TJO2-65" value="修改并发布" style="rounded=1;whiteSpace=wrap;html=1;shadow=0;labelBackgroundColor=none;strokeWidth=1;fontFamily=Verdana;fontSize=8;align=center;" vertex="1" parent="77e6c97f196da883-6">
          <mxGeometry x="30" y="120" width="100" height="35" as="geometry" />
        </mxCell>
        <mxCell id="1ePoEiCkPnLBWXR5TJO2-74" value="商品发货" style="rounded=1;whiteSpace=wrap;html=1;shadow=0;labelBackgroundColor=none;strokeWidth=1;fontFamily=Verdana;fontSize=8;align=center;" vertex="1" parent="77e6c97f196da883-6">
          <mxGeometry x="30" y="260" width="100" height="35" as="geometry" />
        </mxCell>
        <mxCell id="1ePoEiCkPnLBWXR5TJO2-75" value="商品签收结算" style="rounded=1;whiteSpace=wrap;html=1;shadow=0;labelBackgroundColor=none;strokeWidth=1;fontFamily=Verdana;fontSize=8;align=center;" vertex="1" parent="77e6c97f196da883-6">
          <mxGeometry x="30" y="328" width="100" height="35" as="geometry" />
        </mxCell>
        <mxCell id="1ePoEiCkPnLBWXR5TJO2-77" style="edgeStyle=orthogonalEdgeStyle;rounded=0;orthogonalLoop=1;jettySize=auto;html=1;entryX=0;entryY=0.5;entryDx=0;entryDy=0;" edge="1" parent="77e6c97f196da883-1" source="1ePoEiCkPnLBWXR5TJO2-47" target="1ePoEiCkPnLBWXR5TJO2-43">
          <mxGeometry relative="1" as="geometry">
            <Array as="points">
              <mxPoint x="170" y="375" />
              <mxPoint x="170" y="328" />
            </Array>
          </mxGeometry>
        </mxCell>
        <mxCell id="1ePoEiCkPnLBWXR5TJO2-78" style="edgeStyle=orthogonalEdgeStyle;rounded=0;orthogonalLoop=1;jettySize=auto;html=1;exitX=1;exitY=0.5;exitDx=0;exitDy=0;entryX=0;entryY=0.5;entryDx=0;entryDy=0;" edge="1" parent="77e6c97f196da883-1" source="77e6c97f196da883-10" target="1ePoEiCkPnLBWXR5TJO2-43">
          <mxGeometry relative="1" as="geometry">
            <Array as="points">
              <mxPoint x="170" y="308" />
              <mxPoint x="170" y="328" />
            </Array>
          </mxGeometry>
        </mxCell>
        <mxCell id="1ePoEiCkPnLBWXR5TJO2-79" style="edgeStyle=orthogonalEdgeStyle;rounded=0;orthogonalLoop=1;jettySize=auto;html=1;exitX=0;exitY=0.5;exitDx=0;exitDy=0;entryX=0;entryY=0.5;entryDx=0;entryDy=0;" edge="1" parent="77e6c97f196da883-1" source="77e6c97f196da883-8" target="1ePoEiCkPnLBWXR5TJO2-76">
          <mxGeometry relative="1" as="geometry" />
        </mxCell>
        <mxCell id="1ePoEiCkPnLBWXR5TJO2-80" style="edgeStyle=orthogonalEdgeStyle;rounded=0;orthogonalLoop=1;jettySize=auto;html=1;exitX=0;exitY=0.5;exitDx=0;exitDy=0;entryX=0;entryY=0.5;entryDx=0;entryDy=0;" edge="1" parent="77e6c97f196da883-1" source="77e6c97f196da883-9" target="1ePoEiCkPnLBWXR5TJO2-76">
          <mxGeometry relative="1" as="geometry" />
        </mxCell>
        <mxCell id="1ePoEiCkPnLBWXR5TJO2-81" style="edgeStyle=orthogonalEdgeStyle;rounded=0;orthogonalLoop=1;jettySize=auto;html=1;exitX=0;exitY=0.5;exitDx=0;exitDy=0;entryX=0;entryY=0.5;entryDx=0;entryDy=0;" edge="1" parent="77e6c97f196da883-1" source="77e6c97f196da883-10" target="1ePoEiCkPnLBWXR5TJO2-76">
          <mxGeometry relative="1" as="geometry" />
        </mxCell>
        <mxCell id="1ePoEiCkPnLBWXR5TJO2-82" style="edgeStyle=orthogonalEdgeStyle;rounded=0;orthogonalLoop=1;jettySize=auto;html=1;exitX=1;exitY=0.5;exitDx=0;exitDy=0;entryX=0;entryY=0.5;entryDx=0;entryDy=0;" edge="1" parent="77e6c97f196da883-1" source="1ePoEiCkPnLBWXR5TJO2-48" target="77e6c97f196da883-11">
          <mxGeometry relative="1" as="geometry">
            <mxPoint x="150" y="238" as="targetPoint" />
            <Array as="points">
              <mxPoint x="170" y="238" />
              <mxPoint x="170" y="168" />
            </Array>
          </mxGeometry>
        </mxCell>
        <mxCell id="1ePoEiCkPnLBWXR5TJO2-92" style="edgeStyle=orthogonalEdgeStyle;rounded=0;orthogonalLoop=1;jettySize=auto;html=1;entryX=1;entryY=0.5;entryDx=0;entryDy=0;" edge="1" parent="77e6c97f196da883-1" source="1ePoEiCkPnLBWXR5TJO2-49" target="77e6c97f196da883-11">
          <mxGeometry relative="1" as="geometry">
            <Array as="points">
              <mxPoint x="330" y="128" />
              <mxPoint x="330" y="168" />
            </Array>
          </mxGeometry>
        </mxCell>
        <mxCell id="1ePoEiCkPnLBWXR5TJO2-94" style="edgeStyle=orthogonalEdgeStyle;rounded=0;orthogonalLoop=1;jettySize=auto;html=1;exitX=0;exitY=0.5;exitDx=0;exitDy=0;entryX=1;entryY=0.5;entryDx=0;entryDy=0;" edge="1" parent="77e6c97f196da883-1" source="1ePoEiCkPnLBWXR5TJO2-85" target="77e6c97f196da883-11">
          <mxGeometry relative="1" as="geometry">
            <Array as="points">
              <mxPoint x="330" y="408" />
              <mxPoint x="330" y="168" />
            </Array>
          </mxGeometry>
        </mxCell>
        <mxCell id="1ePoEiCkPnLBWXR5TJO2-95" style="edgeStyle=orthogonalEdgeStyle;rounded=0;orthogonalLoop=1;jettySize=auto;html=1;entryX=0;entryY=0.5;entryDx=0;entryDy=0;" edge="1" parent="77e6c97f196da883-1" source="1ePoEiCkPnLBWXR5TJO2-43" target="1ePoEiCkPnLBWXR5TJO2-63">
          <mxGeometry relative="1" as="geometry" />
        </mxCell>
        <mxCell id="1ePoEiCkPnLBWXR5TJO2-96" style="edgeStyle=orthogonalEdgeStyle;rounded=0;orthogonalLoop=1;jettySize=auto;html=1;entryX=1;entryY=0.5;entryDx=0;entryDy=0;" edge="1" parent="77e6c97f196da883-1" source="1ePoEiCkPnLBWXR5TJO2-74" target="1ePoEiCkPnLBWXR5TJO2-63">
          <mxGeometry relative="1" as="geometry">
            <Array as="points">
              <mxPoint x="650" y="298" />
              <mxPoint x="650" y="328" />
            </Array>
          </mxGeometry>
        </mxCell>
        <mxCell id="1ePoEiCkPnLBWXR5TJO2-97" style="edgeStyle=orthogonalEdgeStyle;rounded=0;orthogonalLoop=1;jettySize=auto;html=1;exitX=0;exitY=0.5;exitDx=0;exitDy=0;entryX=1;entryY=0.5;entryDx=0;entryDy=0;" edge="1" parent="77e6c97f196da883-1" source="1ePoEiCkPnLBWXR5TJO2-75" target="1ePoEiCkPnLBWXR5TJO2-63">
          <mxGeometry relative="1" as="geometry">
            <Array as="points">
              <mxPoint x="650" y="366" />
              <mxPoint x="650" y="328" />
            </Array>
          </mxGeometry>
        </mxCell>
        <mxCell id="1ePoEiCkPnLBWXR5TJO2-98" style="edgeStyle=orthogonalEdgeStyle;rounded=0;orthogonalLoop=1;jettySize=auto;html=1;exitX=0;exitY=0.5;exitDx=0;exitDy=0;entryX=1;entryY=0.5;entryDx=0;entryDy=0;" edge="1" parent="77e6c97f196da883-1" source="1ePoEiCkPnLBWXR5TJO2-65" target="1ePoEiCkPnLBWXR5TJO2-50">
          <mxGeometry relative="1" as="geometry">
            <Array as="points">
              <mxPoint x="650" y="158" />
              <mxPoint x="650" y="98" />
            </Array>
          </mxGeometry>
        </mxCell>
        <mxCell id="1ePoEiCkPnLBWXR5TJO2-99" style="edgeStyle=orthogonalEdgeStyle;rounded=0;orthogonalLoop=1;jettySize=auto;html=1;exitX=0;exitY=0.5;exitDx=0;exitDy=0;entryX=1;entryY=0.5;entryDx=0;entryDy=0;" edge="1" parent="77e6c97f196da883-1" source="1ePoEiCkPnLBWXR5TJO2-65" target="1ePoEiCkPnLBWXR5TJO2-61">
          <mxGeometry relative="1" as="geometry" />
        </mxCell>
        <mxCell id="1ePoEiCkPnLBWXR5TJO2-100" style="edgeStyle=orthogonalEdgeStyle;rounded=0;orthogonalLoop=1;jettySize=auto;html=1;exitX=0;exitY=0.5;exitDx=0;exitDy=0;entryX=1;entryY=0.5;entryDx=0;entryDy=0;" edge="1" parent="77e6c97f196da883-1" source="1ePoEiCkPnLBWXR5TJO2-65" target="1ePoEiCkPnLBWXR5TJO2-62">
          <mxGeometry relative="1" as="geometry">
            <Array as="points">
              <mxPoint x="650" y="158" />
              <mxPoint x="650" y="218" />
            </Array>
          </mxGeometry>
        </mxCell>
        <mxCell id="1ePoEiCkPnLBWXR5TJO2-102" style="edgeStyle=orthogonalEdgeStyle;rounded=0;orthogonalLoop=1;jettySize=auto;html=1;entryX=0;entryY=0.5;entryDx=0;entryDy=0;" edge="1" parent="77e6c97f196da883-1" source="1ePoEiCkPnLBWXR5TJO2-49" target="1ePoEiCkPnLBWXR5TJO2-50">
          <mxGeometry relative="1" as="geometry">
            <Array as="points">
              <mxPoint x="470" y="128" />
              <mxPoint x="470" y="98" />
            </Array>
          </mxGeometry>
        </mxCell>
        <mxCell id="1ePoEiCkPnLBWXR5TJO2-103" style="edgeStyle=orthogonalEdgeStyle;rounded=0;orthogonalLoop=1;jettySize=auto;html=1;entryX=0;entryY=0.5;entryDx=0;entryDy=0;" edge="1" parent="77e6c97f196da883-1" source="1ePoEiCkPnLBWXR5TJO2-49" target="1ePoEiCkPnLBWXR5TJO2-61">
          <mxGeometry relative="1" as="geometry">
            <Array as="points">
              <mxPoint x="470" y="128" />
              <mxPoint x="470" y="158" />
            </Array>
          </mxGeometry>
        </mxCell>
        <mxCell id="1ePoEiCkPnLBWXR5TJO2-104" style="edgeStyle=orthogonalEdgeStyle;rounded=0;orthogonalLoop=1;jettySize=auto;html=1;entryX=0;entryY=0.5;entryDx=0;entryDy=0;endArrow=classic;endFill=1;" edge="1" parent="77e6c97f196da883-1" source="1ePoEiCkPnLBWXR5TJO2-49" target="1ePoEiCkPnLBWXR5TJO2-62">
          <mxGeometry relative="1" as="geometry">
            <Array as="points">
              <mxPoint x="470" y="128" />
              <mxPoint x="470" y="218" />
            </Array>
          </mxGeometry>
        </mxCell>
      </root>
    </mxGraphModel>
  </diagram>
</mxfile>
